# xmcd
#
# Track frame offsets:
#       150
#       19455
#       40887
#
# Disc length: 756 seconds
#
# Revision: 0
# Processed by: cddbd v1.5.2PL0 Copyright (c) Steve Scherf et al.
# Submitted via: WaveLab 4.01
#
DISCID=2002f203
DTITLE=Rewolfinger - Please Daddy, Don't Get Drunk This Christmas
DYEAR=2007
DGENRE=Trash Country
TTITLE0=Please Daddy, Don't Get Drunk This Christmas
TTITLE1=Rewolfinger Doped And Beaten - Clubland
TTITLE2=Dear Santa (A Rewolfinger Record And A Bottle Of Booze)
EXTD=
EXTT0=
EXTT1=
EXTT2=
PLAYORDER=
